<?xml version="1.0" encoding="UTF-8" standalone="no"?>
<svg
   width="354"
   height="100"
   viewBox="0 0 354 100"
   fill="none"
   version="1.1"
   id="svg10"
   sodipodi:docname="logo.svg"
   inkscape:version="1.2.2 (b0a8486, 2022-12-01)"
   xmlns:inkscape="http://www.inkscape.org/namespaces/inkscape"
   xmlns:sodipodi="http://sodipodi.sourceforge.net/DTD/sodipodi-0.dtd"
   xmlns="http://www.w3.org/2000/svg"
   xmlns:svg="http://www.w3.org/2000/svg">
  <defs
     id="defs14" />
  <sodipodi:namedview
     id="namedview12"
     pagecolor="#ffffff"
     bordercolor="#666666"
     borderopacity="1.0"
     inkscape:showpageshadow="2"
     inkscape:pageopacity="0.0"
     inkscape:pagecheckerboard="0"
     inkscape:deskcolor="#d1d1d1"
     showgrid="false"
     inkscape:zoom="2.36"
     inkscape:cx="181.77966"
     inkscape:cy="37.5"
     inkscape:window-width="1313"
     inkscape:window-height="731"
     inkscape:window-x="0"
     inkscape:window-y="23"
     inkscape:window-maximized="0"
     inkscape:current-layer="svg10" />
  <path
     d="M149.683 87.5742L148.081 82.8496C150.964 81.8887 153.033 80.207 154.287 77.8047C155.542 75.429 156.169 72.4795 156.169 68.9561V60.748C156.169 57.8919 156.77 55.3962 157.971 53.2607C159.172 51.1253 161.027 49.4837 163.536 48.3359C161.027 47.2415 159.172 45.6266 157.971 43.4912C156.77 41.3558 156.169 38.8333 156.169 35.9238V27.6758C156.169 24.1523 155.542 21.1895 154.287 18.7871C153.033 16.3581 150.964 14.6764 148.081 13.7422L149.683 9.05762C154.861 10.5257 158.545 12.8613 160.733 16.0645C162.949 19.2409 164.057 23.1113 164.057 27.6758V35.9238C164.057 38.9401 164.737 41.2757 166.099 42.9307C167.46 44.5589 169.569 45.373 172.425 45.373V51.2588C169.569 51.2588 167.46 52.0996 166.099 53.7812C164.737 55.4362 164.057 57.7585 164.057 60.748V68.9561C164.057 73.4938 162.949 77.3643 160.733 80.5674C158.545 83.7705 154.861 86.1061 149.683 87.5742Z"
     fill="#F37726"
     id="path4" />
  <path
     d="M 93.2646,87.5742 C 88.0596,86.1061 84.3493,83.7705 82.1338,80.5674 79.945,77.3643 78.8506,73.4938 78.8506,68.9561 V 60.748 c 0,-2.9895 -0.6807,-5.3118 -2.04201,-6.9668 -1.36132,-1.6816 -3.4567,-2.5224 -6.28613,-2.5224 V 45.373 c 2.82943,0 4.92481,-0.8141 6.28613,-2.4423 1.36131,-1.655 2.04201,-3.9906 2.04201,-7.0069 v -8.248 c 0,-4.5645 1.0944,-8.4349 3.2832,-11.6113 2.2155,-3.2032 5.9258,-5.5388 11.1308,-7.00688 l 1.6016,4.68458 c -2.9362,0.9342 -5.0316,2.6159 -6.2861,5.0449 -1.2279,2.4024 -1.8418,5.3652 -1.8418,8.8887 v 8.248 c 0,2.8028 -0.5606,5.2718 -1.6817,7.4073 -1.1211,2.1354 -2.816,3.8037 -5.0849,5.0048 2.2689,1.2279 3.9638,2.9229 5.0849,5.085 1.1211,2.1354 1.6817,4.5778 1.6817,7.3271 v 8.2081 c 0,3.5234 0.6139,6.4729 1.8418,8.8486 1.2545,2.4023 3.3499,4.084 6.2861,5.0449 z"
     fill="#f37726"
     id="path8" />
  <text
     xml:space="preserve"
     style="font-style:normal;font-weight:normal;font-size:40px;line-height:1.25;font-family:sans-serif;fill:#000000;fill-opacity:1;stroke:none"
     x="93.355927"
     y="65.677963"
     id="text352"><tspan
       sodipodi:role="line"
       id="tspan350"
       x="93.355927"
       y="65.677963"
       style="font-style:normal;font-variant:normal;font-weight:normal;font-stretch:normal;font-size:53.3333px;font-family:sans-serif;-inkscape-font-specification:'sans-serif, Normal';font-variant-ligatures:normal;font-variant-caps:normal;font-variant-numeric:normal;font-variant-east-asian:normal;fill:#666666">gp</tspan></text>
  <text
     xml:space="preserve"
     style="font-style:normal;font-weight:normal;font-size:40px;line-height:1.25;font-family:sans-serif;fill:#000000;fill-opacity:1;stroke:none"
     x="182.20338"
     y="66.525421"
     id="text406"><tspan
       sodipodi:role="line"
       id="tspan404"
       x="182.20338"
       y="66.525421"
       style="font-style:normal;font-variant:normal;font-weight:normal;font-stretch:normal;font-size:53.3333px;font-family:sans-serif;-inkscape-font-specification:'sans-serif, Normal';font-variant-ligatures:normal;font-variant-caps:normal;font-variant-numeric:normal;font-variant-east-asian:normal;fill:#666666">etas</tspan></text>
</svg>
